<svg width="176" height="186" viewBox="0 0 176 186" fill="none" xmlns="http://www.w3.org/2000/svg">
<path d="M117.263 163.087V0C77.3678 0 41.3358 20.6667 28.3068 31C11.6836 45.8261 -15.0932 82.7566 10.7851 111.87C36.6634 140.983 92.5533 158.145 117.263 163.087Z" fill="#EB361E"/>
<path d="M3.32941 130.739C14.112 113.487 38.3729 107.377 49.1556 106.478C71.7991 106.478 87.344 113.666 92.286 117.261C108.46 131.278 103.518 145.565 99.0252 150.956C90.9382 155 74.2252 164.435 72.0686 169.826C69.9121 175.217 72.9672 182.855 74.7643 186C52.1208 184.922 29.3874 176.565 20.8512 172.522C10.5178 165.782 -7.45321 147.991 3.32941 130.739Z" fill="#A12C46"/>
<path d="M142.87 9.43506L153.652 20.2177L164.435 9.43506L175.218 17.522L164.435 29.6525L175.218 41.7829L164.435 51.2177L153.652 41.7829L142.87 51.2177L132.087 41.7829L142.87 29.6525L132.087 20.2177L142.87 9.43506Z" fill="#EB361E"/>
<path d="M142.87 59.3042L153.652 70.0868L164.435 59.3042L175.218 67.3912L164.435 79.5216L175.218 91.6521L164.435 101.087L153.652 91.6521L142.87 101.087L132.087 91.6521L142.87 79.5216L132.087 70.0868L142.87 59.3042Z" fill="#EB361E"/>
<path d="M142.87 110.521L153.652 121.304L164.435 110.521L175.218 118.608L164.435 130.739L175.218 142.869L164.435 152.304L153.652 142.869L142.87 152.304L132.087 142.869L142.87 130.739L132.087 121.304L142.87 110.521Z" fill="#EB361E"/>
<path d="M24.2598 94.3473V51.2168H43.1555C46.5803 51.2168 49.536 51.8486 52.0227 53.1122C54.5243 54.3617 56.4526 56.1097 57.8076 58.3561C59.1626 60.5884 59.8401 63.1858 59.8401 66.1482C59.8401 69.1247 59.1477 71.729 57.7629 73.9614C56.393 76.1797 54.4349 77.8996 51.8887 79.121C49.3425 80.3425 46.3197 80.9532 42.8205 80.9532H31.1614V72.7399H40.7656C42.4334 72.7399 43.8256 72.4661 44.9424 71.9186C46.074 71.371 46.9302 70.6059 47.511 69.6231C48.0917 68.6262 48.382 67.4679 48.382 66.1482C48.382 64.8144 48.0917 63.6631 47.511 62.6944C46.9302 61.7116 46.074 60.9534 44.9424 60.4199C43.8107 59.8864 42.4185 59.6197 40.7656 59.6197H35.3158V94.3473H24.2598Z" fill="white"/>
<path d="M65.2899 94.3473V51.2168H84.1857C87.6105 51.2168 90.5662 51.7995 93.0529 52.9648C95.5545 54.116 97.4827 55.7727 98.8378 57.9349C100.193 60.083 100.87 62.6312 100.87 65.5796C100.87 68.5701 100.178 71.1113 98.7931 73.2032C97.4083 75.2811 95.4428 76.8676 92.8965 77.9628C90.3503 79.0438 87.335 79.5844 83.8507 79.5844H71.9012V71.371H81.7958C83.4635 71.371 84.8558 71.1675 85.9726 70.7603C87.1042 70.3391 87.9604 69.7073 88.5411 68.8649C89.1219 68.0085 89.4122 66.9134 89.4122 65.5796C89.4122 64.2458 89.1219 63.1437 88.5411 62.2732C87.9604 61.3887 87.1042 60.7288 85.9726 60.2936C84.8409 59.8443 83.4487 59.6197 81.7958 59.6197H76.346V94.3473H65.2899ZM91.0427 74.6353L102.434 94.3473H90.3726L79.2049 74.6353H91.0427Z" fill="white"/>
<path d="M21.8933 126.696V158.433H16.1743V126.696H21.8933Z" fill="white"/>
<path d="M42.5863 155.291C41.9931 156.658 41.1627 157.633 40.095 158.215C39.0273 158.767 37.7816 159.044 36.358 159.044C35.0234 159.044 33.7629 158.796 32.5766 158.302C31.4199 157.807 30.3967 157.08 29.5069 156.12C28.6171 155.16 27.9053 153.996 27.3715 152.629C26.8673 151.262 26.6152 149.705 26.6152 147.96V147.261C26.6152 145.545 26.8673 144.003 27.3715 142.636C27.8757 141.268 28.5578 140.105 29.4179 139.145C30.278 138.185 31.2716 137.457 32.3986 136.963C33.5553 136.439 34.7861 136.177 36.0911 136.177C37.663 136.177 38.9235 136.439 39.8725 136.963C40.8513 137.486 41.6224 138.301 42.1859 139.406H42.9867V136.788H48.5921V151.887C48.5921 152.76 48.9925 153.196 49.7933 153.196H50.6386V158.433H46.8126C45.8042 158.433 44.9738 158.142 44.3213 157.56C43.6985 156.978 43.3871 156.222 43.3871 155.291H42.5863ZM37.6037 153.807C39.2349 153.807 40.5399 153.283 41.5186 152.236C42.4973 151.16 42.9867 149.705 42.9867 147.872V147.349C42.9867 145.516 42.4973 144.076 41.5186 143.028C40.5399 141.952 39.2349 141.414 37.6037 141.414C35.9725 141.414 34.6675 141.952 33.6887 143.028C32.71 144.076 32.2207 145.516 32.2207 147.349V147.872C32.2207 149.705 32.71 151.16 33.6887 152.236C34.6675 153.283 35.9725 153.807 37.6037 153.807Z" fill="white"/>
<path d="M55.267 158.433V126.696H60.9859V138.566H61.2229C61.5178 137.988 61.9338 137.373 62.471 136.722C63.0081 136.061 63.7348 135.498 64.6511 135.033C65.5674 134.558 66.7365 134.32 68.1583 134.32C70.033 134.32 71.7234 134.79 73.2295 135.73C74.7462 136.66 75.9468 138.039 76.8315 139.868C77.7268 141.686 78.1744 143.918 78.1744 146.562C78.1744 149.176 77.7373 151.397 76.8631 153.226C75.989 155.054 74.7988 156.449 73.2927 157.41C71.7866 158.371 70.0804 158.851 68.1741 158.851C66.7839 158.851 65.6306 158.624 64.7143 158.169C63.798 157.715 63.0608 157.167 62.5026 156.527C61.9549 155.876 61.5283 155.261 61.2229 154.683H60.8911V158.433H55.267ZM60.8753 146.531C60.8753 148.071 61.0965 149.419 61.5389 150.576C61.9917 151.733 62.6395 152.637 63.482 153.288C64.3352 153.928 65.3673 154.249 66.5785 154.249C67.8424 154.249 68.9008 153.918 69.7539 153.257C70.607 152.585 71.2495 151.671 71.6813 150.514C72.1237 149.347 72.3448 148.019 72.3448 146.531C72.3448 145.054 72.1289 143.742 71.6971 142.595C71.2653 141.449 70.6228 140.55 69.7697 139.899C68.9166 139.248 67.8529 138.923 66.5785 138.923C65.3568 138.923 64.3194 139.238 63.4663 139.868C62.6131 140.498 61.9654 141.381 61.5231 142.518C61.0913 143.654 60.8753 144.992 60.8753 146.531Z" fill="white"/>
</svg>
